#!OML:ASF H:\Punching\Project 1\Capture day 1\Session 1\female.ASF
:FULLY-SPECIFIED
:DEGREES
1703
root 1.03353 15.3668 3.73184 -25.8783 32.9339 -13.9578
lowerback 10.4525 -2.04431 -4.18018
upperback 4.01116 -2.91687 6.32479
thorax -1.09062 -1.53472 9.40695
lowerneck -9.16302 -4.23929 6.57936
upperneck 43.1088 -9.20241 3.09386
head 17.3314 -2.03574 -1.18144
rclavicle 5.31749e-015 5.30755e-014
rhumerus -20.6704 0.836931 -59.7813
rradius 127.413
rwrist -12.566
rhand -38.2493 10.3184
rfingers 7.12502
rthumb -11.2797 -19.3583
lclavicle 5.31749e-015 5.30755e-014
lhumerus 2.34755 -39.0248 83.5103
lradius 129.007
lwrist -3.60712
lhand -29.5299 0.417746
lfingers 7.12502
lthumb -2.86348 30.3783
rfemur -106.303 -14.6798 23.1271
rtibia 104.361
rfoot 2.05604 -3.51294
rtoes -19.4835
lfemur 8.86953 -10.3169 -20.8804
ltibia 35.7861
lfoot -16.0452 -3.45269
ltoes 19.7034
1704
root 1.03239 15.3597 3.69878 -25.058 32.5088 -13.8823
lowerback 10.3638 -2.04333 -3.85135
upperback 3.8709 -2.87883 6.33581
thorax -1.21561 -1.50324 9.22036
lowerneck -9.32828 -4.16234 6.58555
upperneck 42.9606 -9.05296 2.97373
head 17.275 -2.00181 -1.22055
rclavicle 3.926e-014 -9.93923e-015
rhumerus -19.9195 1.13256 -59.6705
rradius 127.486
rwrist -12.5579
rhand -38.2348 10.3612
rfingers 7.12502
rthumb -11.2657 -19.3162
lclavicle 3.926e-014 -9.93923e-015
lhumerus 2.48604 -38.7093 83.1227
lradius 129.1
lwrist -3.69698
lhand -29.4977 0.219947
lfingers 7.12502
lthumb -2.83237 30.1809
rfemur -105.86 -14.4248 23.978
rtibia 107.431
rfoot 0.97903 -3.68603
rtoes -18.5797
lfemur 7.60773 -10.2687 -20.7685
ltibia 36.5479
lfoot -16.2761 -3.17834
ltoes 19.4779
1705
root 1.03072 15.3542 3.66393 -24.1113 32.0728 -13.7519
lowerback 10.2001 -2.03899 -3.57251
upperback 3.7004 -2.84143 6.33212
thorax -1.3283 -1.4731 9.044
lowerneck -9.48987 -4.07698 6.61178
upperneck 42.8045 -8.89104 2.84312
head 17.2121 -1.96178 -1.26539
rclavicle 3.28492e-014 -5.36719e-015
rhumerus -19.1643 1.43037 -59.568
rradius 127.547
rwrist -12.5014
rhand -38.2316 10.4029
rfingers 7.12502
rthumb -11.2626 -19.2747
lclavicle 3.28492e-014 -5.36719e-015
lhumerus 2.6117 -38.394 82.7398
lradius 129.196
lwrist -3.72297
lhand -29.5016 0.00655984
lfingers 7.12502
lthumb -2.83612 29.9674
rfemur -105.345 -14.1423 24.7318
rtibia 110.278
rfoot -0.0268626 -3.55513
rtoes -18.2203
lfemur 6.24294 -10.228 -20.6957
ltibia 37.2885
lfoot -16.4747 -2.86064
ltoes 19.1474
1706
root 1.02859 15.3497 3.62787 -23.0339 31.6317 -13.5436
lowerback 9.96725 -2.02779 -3.36614
upperback 3.498 -2.80281 6.30673
thorax -1.43311 -1.44318 8.88377
lowerneck -9.64622 -3.98032 6.66208
upperneck 42.6521 -8.71372 2.70151
head 17.1493 -1.91297 -1.31636
rclavicle 7.66315e-014 -5.725e-014
rhumerus -18.4214 1.72964 -59.4769
rradius 127.605
rwrist -12.4214
rhand -38.2327 10.4447
rfingers 7.12502
rthumb -11.2637 -19.2328
lclavicle 7.66315e-014 -5.725e-014
lhumerus 2.71853 -38.0854 82.3633
lradius 129.298
lwrist -3.67977
lhand -29.5476 -0.209729
lfingers 7.12502
lthumb -2.88056 29.7506
rfemur -104.767 -13.8308 25.3638
rtibia 112.9
rfoot -0.96447 -3.11472
rtoes -18.4446
lfemur 4.79689 -10.1941 -20.6878
ltibia 37.9833
lfoot -16.6416 -2.49097
ltoes 18.7023
1707
root 1.02635 15.346 3.59085 -21.8316 31.1875 -13.2424
lowerback 9.67075 -2.00599 -3.24203
upperback 3.27026 -2.75914 6.25432
thorax -1.52655 -1.41167 8.73937
lowerneck -9.80208 -3.87548 6.72934
upperneck 42.4995 -8.52895 2.56001
head 17.0871 -1.85836 -1.36864
rclavicle -3.39176e-015 4.77083e-015
rhumerus -17.6915 2.02154 -59.397
rradius 127.664
rwrist -12.3473
rhand -38.2465 10.5124
rfingers 7.12502
rthumb -11.277 -19.1645
lclavicle -3.39176e-015 4.77083e-015
lhumerus 2.82534 -37.7869 81.9827
lradius 129.4
lwrist -3.56521
lhand -29.6249 -0.416388
lfingers 7.12502
lthumb -2.95521 29.5429
rfemur -104.13 -13.4941 25.8583
rtibia 115.298
rfoot -1.79874 -2.47596
rtoes -18.8601
lfemur 3.29688 -10.1721 -20.7638
ltibia 38.6083
lfoot -16.776 -2.07163
ltoes 18.2069
1708
root 1.02455 15.3431 3.55271 -20.5278 30.7369 -12.85
lowerback 9.33184 -1.97422 -3.19152
upperback 3.02184 -2.71012 6.17238
thorax -1.61602 -1.37789 8.60419
lowerneck -9.9623 -3.76095 6.80748
upperneck 42.353 -8.33589 2.42346
head 17.031 -1.7973 -1.4191
rclavicle -6.75744e-014 5.08889e-014
rhumerus -16.9803 2.30878 -59.3321
rradius 127.732
rwrist -12.3087
rhand -38.2511 10.5633
rfingers 7.12502
rthumb -11.2815 -19.1133
lclavicle -6.75744e-014 5.08889e-014
lhumerus 2.93073 -37.4961 81.5944
lradius 129.503
lwrist -3.39566
lhand -29.7232 -0.611336
lfingers 7.12502
lthumb -3.05016 29.3466
rfemur -103.424 -13.1364 26.2122
rtibia 117.469
rfoot -2.55813 -1.67105
rtoes -19.4286
lfemur 1.7758 -10.1612 -20.9296
ltibia 39.1443
lfoot -16.879 -1.59151
ltoes 17.6002
1709
root 1.02345 15.3417 3.51385 -19.1438 30.2733 -12.3897
lowerback 8.95313 -1.93611 -3.19786
upperback 2.75545 -2.65825 6.06838
thorax -1.70007 -1.34291 8.47704
lowerneck -10.1262 -3.6358 6.89244
upperneck 42.2108 -8.13123 2.29051
head 16.98 -1.72942 -1.46711
rclavicle -3.65391e-014 -3.18055e-014
rhumerus -16.2857 2.59672 -59.2811
rradius 127.814
rwrist -12.3296
rhand -38.2552 10.6013
rfingers 7.12502
rthumb -11.2854 -19.0751
lclavicle -3.65391e-014 -3.18055e-014
lhumerus 3.03361 -37.2044 81.1982
lradius 129.608
lwrist -3.18893
lhand -29.8287 -0.794577
lfingers 7.12502
lthumb -3.15204 29.1619
rfemur -102.643 -12.7565 26.4445
rtibia 119.414
rfoot -3.19934 -0.836142
rtoes -19.7666
lfemur 0.249598 -10.1651 -21.1607
ltibia 39.5816
lfoot -16.9525 -1.06723
ltoes 16.9894
1710
root 1.02345 15.3418 3.47421 -17.7095 29.7817 -11.887
lowerback 8.55363 -1.89572 -3.23908
upperback 2.48012 -2.60621 5.95304
thorax -1.77985 -1.30799 8.35788
lowerneck -10.3152 -3.49809 6.96444
upperneck 42.0782 -7.91371 2.16952
head 16.944 -1.65543 -1.50613
rclavicle -4.06266e-014 3.89618e-014
rhumerus -15.5882 2.89866 -59.2404
rradius 127.906
rwrist -12.4168
rhand -38.2488 10.6199
rfingers 7.12502
rthumb -11.2792 -19.0569
lclavicle -4.06266e-014 3.89618e-014
lhumerus 3.13936 -36.8901 80.7894
lradius 129.721
lwrist -2.97347
lhand -29.9256 -0.963421
lfingers 7.12502
lthumb -3.2456 28.9916
rfemur -101.768 -12.345 26.5849
rtibia 121.138
rfoot -3.75229 -0.0643729
rtoes -19.7786
lfemur -1.26453 -10.1762 -21.4343
ltibia 39.9207
lfoot -16.9993 -0.491757
ltoes 16.3516
1711
root 1.02482 15.3434 3.43386 -16.2511 29.249 -11.3724
lowerback 8.13872 -1.85324 -3.28557
upperback 2.19445 -2.55116 5.83036
thorax -1.86153 -1.27126 8.23391
lowerneck -10.5027 -3.34842 7.03968
upperneck 41.9427 -7.67899 2.04872
head 16.9075 -1.57409 -1.54249
rclavicle -1.47473e-014 1.59028e-014
rhumerus -14.8976 3.20899 -59.2157
rradius 128.002
rwrist -12.5723
rhand -38.2302 10.7631
rfingers 7.12502
rthumb -11.2613 -18.9146
lclavicle -1.47473e-014 1.59028e-014
lhumerus 3.22514 -36.5573 80.3734
lradius 129.841
lwrist -2.77333
lhand -30.0179 -1.1299
lfingers 7.12502
lthumb -3.33474 28.8238
rfemur -100.786 -11.8881 26.6648
rtibia 122.644
rfoot -4.22368 0.56687
rtoes -19.5449
lfemur -2.75791 -10.1905 -21.7199
ltibia 40.1712
lfoot -17.0252 0.121803
ltoes 15.771
1712
root 1.02759 15.3465 3.39292 -14.8039 28.6617 -10.8785
lowerback 7.73472 -1.81269 -3.3188
upperback 1.91235 -2.49664 5.71786
thorax -1.94458 -1.23484 8.11463
lowerneck -10.7249 -3.1812 7.10712
upperneck 41.809 -7.41776 1.91989
head 16.8823 -1.48351 -1.57767
rclavicle 2.59662e-014 2.18663e-015
rhumerus -14.174 3.55164 -59.1971
rradius 128.098
rwrist -12.7678
rhand -38.2133 10.8795
rfingers 7.12502
rthumb -11.245 -18.7991
lclavicle 2.59662e-014 2.18663e-015
lhumerus 3.3171 -36.1738 79.9432
lradius 129.965
lwrist -2.59764
lhand -30.089 -1.29898
lfingers 7.12502
lthumb -3.40339 28.6536
rfemur -99.6653 -11.3695 26.7155
rtibia 123.932
rfoot -4.63811 0.99532
rtoes -19.1477
lfemur -4.21374 -10.2053 -21.9867
ltibia 40.3463
lfoot -17.0355 0.768841
ltoes 15.3044
1713
root 1.03167 15.3512 3.35143 -13.3807 28.0097 -10.4215
lowerback 7.33922 -1.76662 -3.31989
upperback 1.6314 -2.43143 5.61215
thorax -2.0331 -1.19295 7.98433
lowerneck -10.9545 -3.00461 7.18127
upperneck 41.6652 -7.14114 1.78148
head 16.854 -1.38754 -1.6155
rclavicle 2.49599e-014 -5.88403e-014
rhumerus -13.4388 3.91011 -59.1904
rradius 128.189
rwrist -12.9797
rhand -38.1898 10.9587
rfingers 7.12502
rthumb -11.2224 -18.7212
lclavicle 2.49599e-014 -5.88403e-014
lhumerus 3.40666 -35.8076 79.4933
lradius 130.118
lwrist -2.51657
lhand -30.1286 -1.20492
lfingers 7.12502
lthumb -3.4416 28.747
rfemur -98.3994 -10.7705 26.7508
rtibia 125
rfoot -4.9953 1.19237
rtoes -18.6355
lfemur -5.63614 -10.2052 -22.2157
ltibia 40.4618
lfoot -17.0309 1.44114
ltoes 14.927
